<svg xmlns="http://www.w3.org/2000/svg" xmlns:oryx="http://oryx-editor.org" id="_FE3A22CE-7F19-4F29-B077-46E656764E72" width="573" height="261" xmlns:xlink="http://www.w3.org/1999/xlink" xmlns:svg="http://www.w3.org/2000/svg"><defs><marker id="_76BE31E5-6B4D-4816-AFD6-278D3EB692C3start" refX="1" refY="5" markerUnits="userSpaceOnUse" markerWidth="17" markerHeight="11" orient="auto" fill="#000000" stroke="#000000"> 	  		<path id="_76BE31E5-6B4D-4816-AFD6-278D3EB692C3conditional" d="M 0 5 L 8 0 L 16 5 L 8 10 L 0 5" fill="white" stroke="#000000" stroke-width="1" display="none"/> 			<path id="_76BE31E5-6B4D-4816-AFD6-278D3EB692C3default" d="M 5 0 L 11 10" fill="white" stroke="#000000" stroke-width="1" display="none"/> 	  	</marker><marker id="_76BE31E5-6B4D-4816-AFD6-278D3EB692C3end" refX="15" refY="6" markerUnits="userSpaceOnUse" markerWidth="15" markerHeight="12" orient="auto" fill="#000000" stroke="#000000"> 	  		<path id="_76BE31E5-6B4D-4816-AFD6-278D3EB692C3frame2" d="M 0 1 L 15 6 L 0 11z" fill="#000000" stroke="#000000" stroke-linejoin="round" stroke-width="2"/> 	  	</marker><marker id="_FDFB2D6C-6BF8-4F13-9F7C-FD1BC653524Fstart" refX="1" refY="5" markerUnits="userSpaceOnUse" markerWidth="17" markerHeight="11" orient="auto" fill="#000000" stroke="#000000"> 	  		<path id="_FDFB2D6C-6BF8-4F13-9F7C-FD1BC653524Fconditional" d="M 0 5 L 8 0 L 16 5 L 8 10 L 0 5" fill="white" stroke="#000000" stroke-width="1" display="none"/> 			<path id="_FDFB2D6C-6BF8-4F13-9F7C-FD1BC653524Fdefault" d="M 5 0 L 11 10" fill="white" stroke="#000000" stroke-width="1" display="none"/> 	  	</marker><marker id="_FDFB2D6C-6BF8-4F13-9F7C-FD1BC653524Fend" refX="15" refY="6" markerUnits="userSpaceOnUse" markerWidth="15" markerHeight="12" orient="auto" fill="#000000" stroke="#000000"> 	  		<path id="_FDFB2D6C-6BF8-4F13-9F7C-FD1BC653524Fframe2" d="M 0 1 L 15 6 L 0 11z" fill="#000000" stroke="#000000" stroke-linejoin="round" stroke-width="2"/> 	  	</marker><marker id="_4D2F5BC6-D3B3-4D4C-A1E1-2BE9E6554E6Dstart" refX="1" refY="5" markerUnits="userSpaceOnUse" markerWidth="17" markerHeight="11" orient="auto" fill="#000000" stroke="#000000"> 	  		<path id="_4D2F5BC6-D3B3-4D4C-A1E1-2BE9E6554E6Dconditional" d="M 0 5 L 8 0 L 16 5 L 8 10 L 0 5" fill="white" stroke="#000000" stroke-width="1" display="none"/> 			<path id="_4D2F5BC6-D3B3-4D4C-A1E1-2BE9E6554E6Ddefault" d="M 5 0 L 11 10" fill="white" stroke="#000000" stroke-width="1" display="none"/> 	  	</marker><marker id="_4D2F5BC6-D3B3-4D4C-A1E1-2BE9E6554E6Dend" refX="15" refY="6" markerUnits="userSpaceOnUse" markerWidth="15" markerHeight="12" orient="auto" fill="#000000" stroke="#000000"> 	  		<path id="_4D2F5BC6-D3B3-4D4C-A1E1-2BE9E6554E6Dframe2" d="M 0 1 L 15 6 L 0 11z" fill="#000000" stroke="#000000" stroke-linejoin="round" stroke-width="2"/> 	  	</marker></defs><g stroke="none" font-family="Verdana, sans-serif" font-size-adjust="none" font-style="normal" font-variant="normal" font-weight="normal" line-heigth="normal" font-size="12"><g class="stencils" transform="translate(15, 16)"><g class="me"/><g class="children"><g id="_B487466D-161C-4CC3-B594-8DAE36943B7B" bpmn2nodeid="processStartEvent"><g class="stencils" transform="translate(120, 165)"><g class="me"><g pointer-events="fill" id="_B487466D-161C-4CC3-B594-8DAE36943B7B">        <defs id="_B487466D-161C-4CC3-B594-8DAE36943B7B__B487466D-161C-4CC3-B594-8DAE36943B7B_5"> 		<radialGradient id="_B487466D-161C-4CC3-B594-8DAE36943B7Bbackground" cx="10%" cy="10%" r="100%" fx="10%" fy="10%"> 			<stop offset="0%" stop-color="#ffffff" stop-opacity="1" id="_B487466D-161C-4CC3-B594-8DAE36943B7B__B487466D-161C-4CC3-B594-8DAE36943B7B_6"/> 			<stop id="_B487466D-161C-4CC3-B594-8DAE36943B7Bfill_el" offset="100%" stop-color="#9acd32" stop-opacity="1"/> 		</radialGradient> 	</defs> 	     <circle id="_B487466D-161C-4CC3-B594-8DAE36943B7Bbg_frame" cx="15" cy="15" r="15" stroke="#000000" fill="url(#_B487466D-161C-4CC3-B594-8DAE36943B7Bbackground) white" stroke-width="1" style="stroke-dasharray: 5.5, 3"/>      <circle id="_B487466D-161C-4CC3-B594-8DAE36943B7Bframe" cx="15" cy="15" r="15" stroke="#000000" fill="none" stroke-width="1" display="inherit"/>  	<text font-size="11" id="_B487466D-161C-4CC3-B594-8DAE36943B7Btext_name" x="15" y="32" oryx:align="top center" stroke="black" stroke-width="0pt" letter-spacing="-0.01px" fill="#000000" text-anchor="middle" transform="rotate(0 15 32)" visibility="inherit" oryx:fontSize="11"/>   </g></g><g class="children" style="overflow:hidden"/><g class="edge"/></g><g class="controls"><g class="dockers"/><g class="magnets" transform="translate(120, 165)"><g pointer-events="all" display="none" transform="translate(7, 7)"><circle cx="8" cy="8" r="4" stroke="none" fill="red" fill-opacity="0.3"/></g></g></g></g><g id="_83CF37B0-940E-4B36-86A4-CACD6F471872" bpmn2nodeid="_1F9F9D2D-0FF5-4985-95CD-2E81E274E1E9"><g class="stencils" transform="translate(225, 140)"><g class="me"><g pointer-events="fill" oryx:minimumSize="50 40" id="_83CF37B0-940E-4B36-86A4-CACD6F471872">   	<defs id="_83CF37B0-940E-4B36-86A4-CACD6F471872__83CF37B0-940E-4B36-86A4-CACD6F471872_17"> 		<radialGradient id="_83CF37B0-940E-4B36-86A4-CACD6F471872background" cx="10%" cy="10%" r="100%" fx="10%" fy="10%"> 			<stop offset="0%" stop-color="#ffffff" stop-opacity="1" id="_83CF37B0-940E-4B36-86A4-CACD6F471872__83CF37B0-940E-4B36-86A4-CACD6F471872_18"/> 			<stop id="_83CF37B0-940E-4B36-86A4-CACD6F471872fill_el" offset="100%" stop-color="#fafad2" stop-opacity="1"/> 		</radialGradient> 		<radialGradient id="_83CF37B0-940E-4B36-86A4-CACD6F471872borderbackground" cx="10%" cy="10%" r="100%" fx="10%" fy="10%"> 			<stop offset="0%" stop-color="#ffffff" stop-opacity="1" id="_83CF37B0-940E-4B36-86A4-CACD6F471872__83CF37B0-940E-4B36-86A4-CACD6F471872_19"/> 			<stop id="_83CF37B0-940E-4B36-86A4-CACD6F471872fill_border" offset="100%" stop-color="#000000" stop-opacity="1" stroke="#000000"/> 		</radialGradient> 	</defs> 	 	<rect id="_83CF37B0-940E-4B36-86A4-CACD6F471872text_frame" oryx:anchors="bottom top right left" x="1" y="1" width="94" height="79" rx="10" ry="10" stroke="none" stroke-width="0" fill="none"/> 	<rect id="_83CF37B0-940E-4B36-86A4-CACD6F471872bg_frame" oryx:resize="vertical horizontal" x="0" y="0" width="100" height="80" rx="10" ry="10" stroke="#000000" stroke-width="1" fill="url(#_83CF37B0-940E-4B36-86A4-CACD6F471872background) #ffffcc"/> 		<text font-size="12" id="_83CF37B0-940E-4B36-86A4-CACD6F471872text_name" x="50" y="40" oryx:align="middle center" oryx:fittoelem="text_frame" stroke="black" text-anchor="middle" stroke-width="0pt" letter-spacing="-0.01px" fill="#000000" transform="rotate(0 50 40)" visibility="inherit" oryx:fontSize="12"/>     <g id="_83CF37B0-940E-4B36-86A4-CACD6F471872manualTask" transform="scale(0.7,0.7) translate(8,8)" display="none">     	<path oryx:anchors="top left" id="_83CF37B0-940E-4B36-86A4-CACD6F471872frame" style="opacity:1;fill:none;fill-opacity:1;stroke-width:1" d="M0.5,3.751l4.083-3.25c0,0,11.166,0.083,12.083,0.083s-2.417,2.917-1.5,2.917     s11.667,0,12.584,0c1.166,1.708-0.168,3.167-0.834,3.667s0.875,1.917-1,4.417c-0.75,0.25,0.75,1.875-1.333,3.333     c-1.167,0.583,0.583,1.542-1.25,2.833c-1.167,0-20.833,0.083-20.833,0.083l-2-1.333V3.751z" stroke="#000000"/> 		<path id="_83CF37B0-940E-4B36-86A4-CACD6F471872frame2" oryx:anchors="top left" style="opacity:1;fill:none;stroke-width:2" d="M 13.5 7 L 27 7" stroke="#000000"/> 		<path id="_83CF37B0-940E-4B36-86A4-CACD6F471872frame3" oryx:anchors="top left" style="opacity:1;fill:none;stroke-width:2" d="M 13.5 11 L 26 11" stroke="#000000"/> 		<path id="_83CF37B0-940E-4B36-86A4-CACD6F471872frame4" oryx:anchors="top left" style="opacity:1;fill:none;stroke-width:1.5" d="M 14 14.5 L 25 14.5" stroke="#000000"/> 		<path id="_83CF37B0-940E-4B36-86A4-CACD6F471872frame5" oryx:anchors="top left" style="opacity:1;fill:none;stroke-width:1.5" d="M 8.2 3.1 L 15 3.1" stroke="#000000"/> 	</g> 	 	<g id="_83CF37B0-940E-4B36-86A4-CACD6F471872businessRuleTask" transform="scale(0.7,0.7) translate(8,8)" display="none"> 		<rect id="_83CF37B0-940E-4B36-86A4-CACD6F471872frame6" oryx:anchors="top left" x="0" y="0" width="22" height="4" style="opacity:1;fill:#B3B1B3;fill-opacity:1;" stroke="#000000"/> 		<rect id="_83CF37B0-940E-4B36-86A4-CACD6F471872frame7" oryx:anchors="top left" x="0" y="4" style="opacity:1;fill:none;" width="22" height="12" stroke="#000000"/> 		<path id="_83CF37B0-940E-4B36-86A4-CACD6F471872frame8" oryx:anchors="top left" style="opacity:1;fill:none;" d="M 0 10 L 22 10" stroke="#000000"/> 		<path id="_83CF37B0-940E-4B36-86A4-CACD6F471872frame9" oryx:anchors="top left" style="opacity:1; fill:none;" d="M 7 4 L 7 16" stroke="#000000"/> 	</g> 	 	<g id="_83CF37B0-940E-4B36-86A4-CACD6F471872scriptTask" transform="scale(0.7,0.7) translate(8,8)" display="none"> 		<path oryx:anchors="top left" id="_83CF37B0-940E-4B36-86A4-CACD6F471872frame10" style="opacity:1;fill:none;" stroke="#000000" d="M6.402,0.5h14.5c0,0-5.833,2.833-5.833,5.583s4.417,6,4.417,9.167    s-4.167,5.083-4.167,5.083H0.235c0,0,5-2.667,5-5s-4.583-6.75-4.583-9.25S6.402,0.5,6.402,0.5z"/> 		<path oryx:anchors="top left" id="_83CF37B0-940E-4B36-86A4-CACD6F471872frame11" style="opacity:1;fill:none;stroke-width:1.5" d="M 3.5 4.5 L 13.5 4.5" stroke="#000000"/> 		<path oryx:anchors="top left" id="_83CF37B0-940E-4B36-86A4-CACD6F471872frame12" style="opacity:1;fill:none;stroke-width:1.5" d="M 3.8 8.5 L 13.8 8.5" stroke="#000000"/> 		<path oryx:anchors="top left" id="_83CF37B0-940E-4B36-86A4-CACD6F471872frame13" style="opacity:1;fill:none;stroke-width:1.5" d="M 6.3 12.5 L 16.3 12.5" stroke="#000000"/> 		<path oryx:anchors="top left" id="_83CF37B0-940E-4B36-86A4-CACD6F471872frame14" style="opacity:1;fill:none;stroke-width:1.5" d="M 6.5 16.5 L 16.5 16.5" stroke="#000000"/> 	</g> 	 	<g id="_83CF37B0-940E-4B36-86A4-CACD6F471872userTask" transform="scale(0.7,0.7) translate(8,8)" display="inherit"> 		<path id="_83CF37B0-940E-4B36-86A4-CACD6F471872frame15" oryx:anchors="top left" style="opacity:1;fill:#F4F6F7" stroke="#000000" d="M0.585,24.167h24.083v-7.833c0,0-2.333-3.917-7.083-5.167h-9.25    c-4.417,1.333-7.833,5.75-7.833,5.75L0.585,24.167z"/> 		<path id="_83CF37B0-940E-4B36-86A4-CACD6F471872frame16" oryx:anchors="top left" style="opacity:1;fill:none" d="M 6 20 L 6 24" stroke="#000000"/> 		<path id="_83CF37B0-940E-4B36-86A4-CACD6F471872frame17" oryx:anchors="top left" style="opacity:1;fill:none" d="M 20 20 L 20 24" stroke="#000000"/> 		<circle id="_83CF37B0-940E-4B36-86A4-CACD6F471872frame18" oryx:anchors="top left" fill="black" cx="13.002" cy="5.916" r="5.417" stroke="#000000"/> 		<path id="_83CF37B0-940E-4B36-86A4-CACD6F471872frame19" oryx:anchors="top left" style="opacity:1;fill:#F0EFF0;" stroke="#000000" d="M8.043,7.083c0,0,2.814-2.426,5.376-1.807s4.624-0.693,4.624-0.693    c0.25,1.688,0.042,3.75-1.458,5.584c0,0,1.083,0.75,1.083,1.5s0.125,1.875-1,3s-5.5,1.25-6.75,0S8.668,12.834,8.668,12    s0.583-1.25,1.25-1.917C8.835,9.5,7.419,7.708,8.043,7.083z"/> 	</g> 	 	<g id="_83CF37B0-940E-4B36-86A4-CACD6F471872serviceTask" transform="scale(0.7,0.7) translate(8,8)" display="none"> 		<polygon oryx:anchors="top left" id="_83CF37B0-940E-4B36-86A4-CACD6F471872frame20" style="opacity:1;fill:#ffffff" stroke="#000000" points="15.392,5.064 17.954,2.502 20.347,4.895 17.786,7.455     18.729,9.732 22.353,9.732 22.353,13.115 18.731,13.115 17.788,15.392 20.351,17.955 17.958,20.347 15.397,17.786 13.12,18.729     13.12,22.353 9.737,22.353 9.737,18.731 7.46,17.788 4.897,20.35 2.506,17.958 5.066,15.397 4.124,13.12 0.5,13.12 0.5,9.737     4.121,9.737 5.065,7.461 2.503,4.898 4.895,2.506 7.455,5.066 9.732,4.125 9.732,0.5 13.116,0.5 13.116,4.121 "/> 		<circle oryx:anchors="top left" id="_83CF37B0-940E-4B36-86A4-CACD6F471872frame21" style="opacity:1;fill:none" stroke="#000000" cx="11.427" cy="11.426" r="3.714"/> 		<polygon oryx:anchors="top left" id="_83CF37B0-940E-4B36-86A4-CACD6F471872frame22" style="opacity:1;fill:#ffffff" stroke="#000000" points="21.392,11.064 23.954,8.502 26.347,10.895 23.786,13.455     24.729,15.732 28.353,15.732 28.353,19.115 24.731,19.115 23.788,21.392 26.351,23.955 23.958,26.347 21.397,23.786 19.12,24.729     19.12,28.353 15.737,28.353 15.737,24.731 13.46,23.788 10.897,26.35 8.506,23.958 11.066,21.397 10.124,19.12 6.5,19.12     6.5,15.737 10.121,15.737 11.065,13.461 8.503,10.898 10.895,8.506 13.455,11.066 15.732,10.125 15.732,6.5 19.116,6.5     19.116,10.121 "/> 		<circle oryx:anchors="top left" id="_83CF37B0-940E-4B36-86A4-CACD6F471872frame23" style="opacity:1;fill:none;" stroke="#000000" cx="17.427" cy="17.426" r="3.714"/> 	</g> 	 	<g id="_83CF37B0-940E-4B36-86A4-CACD6F471872sendTask" display="none"> 		<path id="_83CF37B0-940E-4B36-86A4-CACD6F471872stframe24" oryx:anchors="left top" stroke="#FFFFFF" fill="black" stroke-width="1" d="M8,11 L8,21 L24,21 L24,11 L16,17z"/> 		<path id="_83CF37B0-940E-4B36-86A4-CACD6F471872stframe25" oryx:anchors="left top" stroke="#FFFFFF" fill="black" stroke-width="1" d="M7,10 L16,17 L25 10z"/> 	</g> 	 	<g id="_83CF37B0-940E-4B36-86A4-CACD6F471872receiveTask" display="none"> 		<path id="_83CF37B0-940E-4B36-86A4-CACD6F471872frame26" oryx:anchors="left top" stroke="#000000" fill="none" stroke-width="1" d="M8,11 L8,21 L24,21 L24,11z M8,11 L16,17 L24,11"/> 	</g> 	 	<g id="_83CF37B0-940E-4B36-86A4-CACD6F471872none" display="none"/>  	<g id="_83CF37B0-940E-4B36-86A4-CACD6F471872sequential" display="none">         <path oryx:anchors="bottom" fill="none" stroke="#000000" stroke-width="2" d="M46,76h10M46,72h10 M46,68h10" id="_83CF37B0-940E-4B36-86A4-CACD6F471872__83CF37B0-940E-4B36-86A4-CACD6F471872_20"/>     </g>   </g></g><g class="children" style="overflow:hidden"/><g class="edge"/></g><g class="controls"><g class="dockers"/><g class="magnets" transform="translate(225, 140)"><g pointer-events="all" display="none" transform="translate(-7, 12)"><circle cx="8" cy="8" r="4" stroke="none" fill="red" fill-opacity="0.3"/></g><g pointer-events="all" display="none" transform="translate(-7, 32)"><circle cx="8" cy="8" r="4" stroke="none" fill="red" fill-opacity="0.3"/></g><g pointer-events="all" display="none" transform="translate(-7, 52)"><circle cx="8" cy="8" r="4" stroke="none" fill="red" fill-opacity="0.3"/></g><g pointer-events="all" display="none" transform="translate(17, 71)"><circle cx="8" cy="8" r="4" stroke="none" fill="red" fill-opacity="0.3"/></g><g pointer-events="all" display="none" transform="translate(42, 71)"><circle cx="8" cy="8" r="4" stroke="none" fill="red" fill-opacity="0.3"/></g><g pointer-events="all" display="none" transform="translate(67, 71)"><circle cx="8" cy="8" r="4" stroke="none" fill="red" fill-opacity="0.3"/></g><g pointer-events="all" display="none" transform="translate(91, 12)"><circle cx="8" cy="8" r="4" stroke="none" fill="red" fill-opacity="0.3"/></g><g pointer-events="all" display="none" transform="translate(91, 32)"><circle cx="8" cy="8" r="4" stroke="none" fill="red" fill-opacity="0.3"/></g><g pointer-events="all" display="none" transform="translate(91, 52)"><circle cx="8" cy="8" r="4" stroke="none" fill="red" fill-opacity="0.3"/></g><g pointer-events="all" display="none" transform="translate(17, -7)"><circle cx="8" cy="8" r="4" stroke="none" fill="red" fill-opacity="0.3"/></g><g pointer-events="all" display="none" transform="translate(42, -7)"><circle cx="8" cy="8" r="4" stroke="none" fill="red" fill-opacity="0.3"/></g><g pointer-events="all" display="none" transform="translate(67, -7)"><circle cx="8" cy="8" r="4" stroke="none" fill="red" fill-opacity="0.3"/></g><g pointer-events="all" display="none" transform="translate(42, 32)"><circle cx="8" cy="8" r="4" stroke="none" fill="red" fill-opacity="0.3"/></g></g></g></g><g id="_5730F8A9-CD16-4DD1-ACCD-8E1D5348E026" bpmn2nodeid="_2EC3ACAA-8783-4663-B91B-43550F9C567A"><g class="stencils" transform="translate(360, 140)"><g class="me"><g pointer-events="fill" oryx:minimumSize="50 40" id="_5730F8A9-CD16-4DD1-ACCD-8E1D5348E026">   	<defs id="_5730F8A9-CD16-4DD1-ACCD-8E1D5348E026__5730F8A9-CD16-4DD1-ACCD-8E1D5348E026_17"> 		<radialGradient id="_5730F8A9-CD16-4DD1-ACCD-8E1D5348E026background" cx="10%" cy="10%" r="100%" fx="10%" fy="10%"> 			<stop offset="0%" stop-color="#ffffff" stop-opacity="1" id="_5730F8A9-CD16-4DD1-ACCD-8E1D5348E026__5730F8A9-CD16-4DD1-ACCD-8E1D5348E026_18"/> 			<stop id="_5730F8A9-CD16-4DD1-ACCD-8E1D5348E026fill_el" offset="100%" stop-color="#fafad2" stop-opacity="1"/> 		</radialGradient> 		<radialGradient id="_5730F8A9-CD16-4DD1-ACCD-8E1D5348E026borderbackground" cx="10%" cy="10%" r="100%" fx="10%" fy="10%"> 			<stop offset="0%" stop-color="#ffffff" stop-opacity="1" id="_5730F8A9-CD16-4DD1-ACCD-8E1D5348E026__5730F8A9-CD16-4DD1-ACCD-8E1D5348E026_19"/> 			<stop id="_5730F8A9-CD16-4DD1-ACCD-8E1D5348E026fill_border" offset="100%" stop-color="#000000" stop-opacity="1" stroke="#000000"/> 		</radialGradient> 	</defs> 	 	<rect id="_5730F8A9-CD16-4DD1-ACCD-8E1D5348E026text_frame" oryx:anchors="bottom top right left" x="1" y="1" width="94" height="79" rx="10" ry="10" stroke="none" stroke-width="0" fill="none"/> 	<rect id="_5730F8A9-CD16-4DD1-ACCD-8E1D5348E026bg_frame" oryx:resize="vertical horizontal" x="0" y="0" width="100" height="80" rx="10" ry="10" stroke="#000000" stroke-width="1" fill="url(#_5730F8A9-CD16-4DD1-ACCD-8E1D5348E026background) #ffffcc"/> 		<text font-size="12" id="_5730F8A9-CD16-4DD1-ACCD-8E1D5348E026text_name" x="50" y="40" oryx:align="middle center" oryx:fittoelem="text_frame" stroke="black" text-anchor="middle" stroke-width="0pt" letter-spacing="-0.01px" fill="#000000" transform="rotate(0 50 40)" visibility="inherit" oryx:fontSize="12"><tspan x="50" y="40" dy="5" id="ext-gen1249">source_web</tspan></text>     <g id="_5730F8A9-CD16-4DD1-ACCD-8E1D5348E026manualTask" transform="scale(0.7,0.7) translate(8,8)" display="none">     	<path oryx:anchors="top left" id="_5730F8A9-CD16-4DD1-ACCD-8E1D5348E026frame" style="opacity:1;fill:none;fill-opacity:1;stroke-width:1" d="M0.5,3.751l4.083-3.25c0,0,11.166,0.083,12.083,0.083s-2.417,2.917-1.5,2.917     s11.667,0,12.584,0c1.166,1.708-0.168,3.167-0.834,3.667s0.875,1.917-1,4.417c-0.75,0.25,0.75,1.875-1.333,3.333     c-1.167,0.583,0.583,1.542-1.25,2.833c-1.167,0-20.833,0.083-20.833,0.083l-2-1.333V3.751z" stroke="#000000"/> 		<path id="_5730F8A9-CD16-4DD1-ACCD-8E1D5348E026frame2" oryx:anchors="top left" style="opacity:1;fill:none;stroke-width:2" d="M 13.5 7 L 27 7" stroke="#000000"/> 		<path id="_5730F8A9-CD16-4DD1-ACCD-8E1D5348E026frame3" oryx:anchors="top left" style="opacity:1;fill:none;stroke-width:2" d="M 13.5 11 L 26 11" stroke="#000000"/> 		<path id="_5730F8A9-CD16-4DD1-ACCD-8E1D5348E026frame4" oryx:anchors="top left" style="opacity:1;fill:none;stroke-width:1.5" d="M 14 14.5 L 25 14.5" stroke="#000000"/> 		<path id="_5730F8A9-CD16-4DD1-ACCD-8E1D5348E026frame5" oryx:anchors="top left" style="opacity:1;fill:none;stroke-width:1.5" d="M 8.2 3.1 L 15 3.1" stroke="#000000"/> 	</g> 	 	<g id="_5730F8A9-CD16-4DD1-ACCD-8E1D5348E026businessRuleTask" transform="scale(0.7,0.7) translate(8,8)" display="none"> 		<rect id="_5730F8A9-CD16-4DD1-ACCD-8E1D5348E026frame6" oryx:anchors="top left" x="0" y="0" width="22" height="4" style="opacity:1;fill:#B3B1B3;fill-opacity:1;" stroke="#000000"/> 		<rect id="_5730F8A9-CD16-4DD1-ACCD-8E1D5348E026frame7" oryx:anchors="top left" x="0" y="4" style="opacity:1;fill:none;" width="22" height="12" stroke="#000000"/> 		<path id="_5730F8A9-CD16-4DD1-ACCD-8E1D5348E026frame8" oryx:anchors="top left" style="opacity:1;fill:none;" d="M 0 10 L 22 10" stroke="#000000"/> 		<path id="_5730F8A9-CD16-4DD1-ACCD-8E1D5348E026frame9" oryx:anchors="top left" style="opacity:1; fill:none;" d="M 7 4 L 7 16" stroke="#000000"/> 	</g> 	 	<g id="_5730F8A9-CD16-4DD1-ACCD-8E1D5348E026scriptTask" transform="scale(0.7,0.7) translate(8,8)" display="none"> 		<path oryx:anchors="top left" id="_5730F8A9-CD16-4DD1-ACCD-8E1D5348E026frame10" style="opacity:1;fill:none;" stroke="#000000" d="M6.402,0.5h14.5c0,0-5.833,2.833-5.833,5.583s4.417,6,4.417,9.167    s-4.167,5.083-4.167,5.083H0.235c0,0,5-2.667,5-5s-4.583-6.75-4.583-9.25S6.402,0.5,6.402,0.5z"/> 		<path oryx:anchors="top left" id="_5730F8A9-CD16-4DD1-ACCD-8E1D5348E026frame11" style="opacity:1;fill:none;stroke-width:1.5" d="M 3.5 4.5 L 13.5 4.5" stroke="#000000"/> 		<path oryx:anchors="top left" id="_5730F8A9-CD16-4DD1-ACCD-8E1D5348E026frame12" style="opacity:1;fill:none;stroke-width:1.5" d="M 3.8 8.5 L 13.8 8.5" stroke="#000000"/> 		<path oryx:anchors="top left" id="_5730F8A9-CD16-4DD1-ACCD-8E1D5348E026frame13" style="opacity:1;fill:none;stroke-width:1.5" d="M 6.3 12.5 L 16.3 12.5" stroke="#000000"/> 		<path oryx:anchors="top left" id="_5730F8A9-CD16-4DD1-ACCD-8E1D5348E026frame14" style="opacity:1;fill:none;stroke-width:1.5" d="M 6.5 16.5 L 16.5 16.5" stroke="#000000"/> 	</g> 	 	<g id="_5730F8A9-CD16-4DD1-ACCD-8E1D5348E026userTask" transform="scale(0.7,0.7) translate(8,8)" display="none"> 		<path id="_5730F8A9-CD16-4DD1-ACCD-8E1D5348E026frame15" oryx:anchors="top left" style="opacity:1;fill:#F4F6F7" stroke="#000000" d="M0.585,24.167h24.083v-7.833c0,0-2.333-3.917-7.083-5.167h-9.25    c-4.417,1.333-7.833,5.75-7.833,5.75L0.585,24.167z"/> 		<path id="_5730F8A9-CD16-4DD1-ACCD-8E1D5348E026frame16" oryx:anchors="top left" style="opacity:1;fill:none" d="M 6 20 L 6 24" stroke="#000000"/> 		<path id="_5730F8A9-CD16-4DD1-ACCD-8E1D5348E026frame17" oryx:anchors="top left" style="opacity:1;fill:none" d="M 20 20 L 20 24" stroke="#000000"/> 		<circle id="_5730F8A9-CD16-4DD1-ACCD-8E1D5348E026frame18" oryx:anchors="top left" fill="black" cx="13.002" cy="5.916" r="5.417" stroke="#000000"/> 		<path id="_5730F8A9-CD16-4DD1-ACCD-8E1D5348E026frame19" oryx:anchors="top left" style="opacity:1;fill:#F0EFF0;" stroke="#000000" d="M8.043,7.083c0,0,2.814-2.426,5.376-1.807s4.624-0.693,4.624-0.693    c0.25,1.688,0.042,3.75-1.458,5.584c0,0,1.083,0.75,1.083,1.5s0.125,1.875-1,3s-5.5,1.25-6.75,0S8.668,12.834,8.668,12    s0.583-1.25,1.25-1.917C8.835,9.5,7.419,7.708,8.043,7.083z"/> 	</g> 	 	<g id="_5730F8A9-CD16-4DD1-ACCD-8E1D5348E026serviceTask" transform="scale(0.7,0.7) translate(8,8)" display="inherit"> 		<polygon oryx:anchors="top left" id="_5730F8A9-CD16-4DD1-ACCD-8E1D5348E026frame20" style="opacity:1;fill:#ffffff" stroke="#000000" points="15.392,5.064 17.954,2.502 20.347,4.895 17.786,7.455     18.729,9.732 22.353,9.732 22.353,13.115 18.731,13.115 17.788,15.392 20.351,17.955 17.958,20.347 15.397,17.786 13.12,18.729     13.12,22.353 9.737,22.353 9.737,18.731 7.46,17.788 4.897,20.35 2.506,17.958 5.066,15.397 4.124,13.12 0.5,13.12 0.5,9.737     4.121,9.737 5.065,7.461 2.503,4.898 4.895,2.506 7.455,5.066 9.732,4.125 9.732,0.5 13.116,0.5 13.116,4.121 "/> 		<circle oryx:anchors="top left" id="_5730F8A9-CD16-4DD1-ACCD-8E1D5348E026frame21" style="opacity:1;fill:none" stroke="#000000" cx="11.427" cy="11.426" r="3.714"/> 		<polygon oryx:anchors="top left" id="_5730F8A9-CD16-4DD1-ACCD-8E1D5348E026frame22" style="opacity:1;fill:#ffffff" stroke="#000000" points="21.392,11.064 23.954,8.502 26.347,10.895 23.786,13.455     24.729,15.732 28.353,15.732 28.353,19.115 24.731,19.115 23.788,21.392 26.351,23.955 23.958,26.347 21.397,23.786 19.12,24.729     19.12,28.353 15.737,28.353 15.737,24.731 13.46,23.788 10.897,26.35 8.506,23.958 11.066,21.397 10.124,19.12 6.5,19.12     6.5,15.737 10.121,15.737 11.065,13.461 8.503,10.898 10.895,8.506 13.455,11.066 15.732,10.125 15.732,6.5 19.116,6.5     19.116,10.121 "/> 		<circle oryx:anchors="top left" id="_5730F8A9-CD16-4DD1-ACCD-8E1D5348E026frame23" style="opacity:1;fill:none;" stroke="#000000" cx="17.427" cy="17.426" r="3.714"/> 	</g> 	 	<g id="_5730F8A9-CD16-4DD1-ACCD-8E1D5348E026sendTask" display="none"> 		<path id="_5730F8A9-CD16-4DD1-ACCD-8E1D5348E026stframe24" oryx:anchors="left top" stroke="#FFFFFF" fill="black" stroke-width="1" d="M8,11 L8,21 L24,21 L24,11 L16,17z"/> 		<path id="_5730F8A9-CD16-4DD1-ACCD-8E1D5348E026stframe25" oryx:anchors="left top" stroke="#FFFFFF" fill="black" stroke-width="1" d="M7,10 L16,17 L25 10z"/> 	</g> 	 	<g id="_5730F8A9-CD16-4DD1-ACCD-8E1D5348E026receiveTask" display="none"> 		<path id="_5730F8A9-CD16-4DD1-ACCD-8E1D5348E026frame26" oryx:anchors="left top" stroke="#000000" fill="none" stroke-width="1" d="M8,11 L8,21 L24,21 L24,11z M8,11 L16,17 L24,11"/> 	</g> 	 	<g id="_5730F8A9-CD16-4DD1-ACCD-8E1D5348E026none" display="none"/>  	<g id="_5730F8A9-CD16-4DD1-ACCD-8E1D5348E026sequential" display="none">         <path oryx:anchors="bottom" fill="none" stroke="#000000" stroke-width="2" d="M46,76h10M46,72h10 M46,68h10" id="_5730F8A9-CD16-4DD1-ACCD-8E1D5348E026__5730F8A9-CD16-4DD1-ACCD-8E1D5348E026_20"/>     </g>   </g></g><g class="children" style="overflow:hidden"/><g class="edge"/></g><g class="controls"><g class="dockers"/><g class="magnets" transform="translate(360, 140)"><g pointer-events="all" display="none" transform="translate(-7, 12)"><circle cx="8" cy="8" r="4" stroke="none" fill="red" fill-opacity="0.3"/></g><g pointer-events="all" display="none" transform="translate(-7, 32)"><circle cx="8" cy="8" r="4" stroke="none" fill="red" fill-opacity="0.3"/></g><g pointer-events="all" display="none" transform="translate(-7, 52)"><circle cx="8" cy="8" r="4" stroke="none" fill="red" fill-opacity="0.3"/></g><g pointer-events="all" display="none" transform="translate(17, 71)"><circle cx="8" cy="8" r="4" stroke="none" fill="red" fill-opacity="0.3"/></g><g pointer-events="all" display="none" transform="translate(42, 71)"><circle cx="8" cy="8" r="4" stroke="none" fill="red" fill-opacity="0.3"/></g><g pointer-events="all" display="none" transform="translate(67, 71)"><circle cx="8" cy="8" r="4" stroke="none" fill="red" fill-opacity="0.3"/></g><g pointer-events="all" display="none" transform="translate(91, 12)"><circle cx="8" cy="8" r="4" stroke="none" fill="red" fill-opacity="0.3"/></g><g pointer-events="all" display="none" transform="translate(91, 32)"><circle cx="8" cy="8" r="4" stroke="none" fill="red" fill-opacity="0.3"/></g><g pointer-events="all" display="none" transform="translate(91, 52)"><circle cx="8" cy="8" r="4" stroke="none" fill="red" fill-opacity="0.3"/></g><g pointer-events="all" display="none" transform="translate(17, -7)"><circle cx="8" cy="8" r="4" stroke="none" fill="red" fill-opacity="0.3"/></g><g pointer-events="all" display="none" transform="translate(42, -7)"><circle cx="8" cy="8" r="4" stroke="none" fill="red" fill-opacity="0.3"/></g><g pointer-events="all" display="none" transform="translate(67, -7)"><circle cx="8" cy="8" r="4" stroke="none" fill="red" fill-opacity="0.3"/></g><g pointer-events="all" display="none" transform="translate(42, 32)"><circle cx="8" cy="8" r="4" stroke="none" fill="red" fill-opacity="0.3"/></g></g></g></g><g id="_084FA836-7BBA-4E21-8CA9-48CE98664C69" bpmn2nodeid="_D9FCC761-DA61-49FD-BB1A-820EB6819692"><g class="stencils" transform="translate(505, 166)"><g class="me"><g pointer-events="fill" id="_084FA836-7BBA-4E21-8CA9-48CE98664C69">      <defs id="_084FA836-7BBA-4E21-8CA9-48CE98664C69__084FA836-7BBA-4E21-8CA9-48CE98664C69_5"> 		<radialGradient id="_084FA836-7BBA-4E21-8CA9-48CE98664C69background" cx="10%" cy="10%" r="100%" fx="10%" fy="10%"> 			<stop offset="0%" stop-color="#ffffff" stop-opacity="1" id="_084FA836-7BBA-4E21-8CA9-48CE98664C69__084FA836-7BBA-4E21-8CA9-48CE98664C69_6"/> 			<stop id="_084FA836-7BBA-4E21-8CA9-48CE98664C69fill_el" offset="100%" stop-color="#ff6347" stop-opacity="1"/> 		</radialGradient> 	</defs> 	     <circle id="_084FA836-7BBA-4E21-8CA9-48CE98664C69bg_frame" cx="14" cy="14" r="14" stroke="#000000" fill="url(#_084FA836-7BBA-4E21-8CA9-48CE98664C69background) white" stroke-width="3"/> 	<text font-size="11" id="_084FA836-7BBA-4E21-8CA9-48CE98664C69text_name" x="14" y="30" oryx:align="top center" stroke="black" stroke-width="0pt" letter-spacing="-0.01px" fill="#000000" text-anchor="middle" transform="rotate(0 14 30)" visibility="inherit" oryx:fontSize="11"/>   </g></g><g class="children" style="overflow:hidden"/><g class="edge"/></g><g class="controls"><g class="dockers"/><g class="magnets" transform="translate(505, 166)"><g pointer-events="all" display="none" transform="translate(6, 6)"><circle cx="8" cy="8" r="4" stroke="none" fill="red" fill-opacity="0.3"/></g></g></g></g></g><g class="edge"><g id="_76BE31E5-6B4D-4816-AFD6-278D3EB692C3" bpmn2nodeid="_8C475916-920A-4F79-A912-2189771BB4C7"><g class="stencils"><g class="me"><g pointer-events="painted" bpmn2nodeid="_8C475916-920A-4F79-A912-2189771BB4C7"><path id="_76BE31E5-6B4D-4816-AFD6-278D3EB692C3_1" d="M150.21875 180L224.78125 180 " stroke="#000000" fill="none" stroke-width="2" stroke-linecap="round" stroke-linejoin="round" marker-start="url(#_76BE31E5-6B4D-4816-AFD6-278D3EB692C3start)" marker-end="url(#_76BE31E5-6B4D-4816-AFD6-278D3EB692C3end)"/></g><text id="_76BE31E5-6B4D-4816-AFD6-278D3EB692C3text_name" font-size="12" x="164.21875" y="166" oryx:edgePosition="startTop" stroke-width="0pt" letter-spacing="-0.01px" fill="#000000" text-anchor="start" transform="rotate(360 150.21875 180)" visibility="inherit" oryx:fontSize="12"/></g><g class="children" style="overflow:hidden"/><g class="edge"/></g><g class="controls"><g class="dockers"/><g class="magnets"/></g></g><g id="_FDFB2D6C-6BF8-4F13-9F7C-FD1BC653524F" bpmn2nodeid="_76C214CB-926B-4837-A19B-EEA994471F40"><g class="stencils"><g class="me"><g pointer-events="painted" bpmn2nodeid="_76C214CB-926B-4837-A19B-EEA994471F40"><path id="_FDFB2D6C-6BF8-4F13-9F7C-FD1BC653524F_1" d="M325.5703125 180L359.4296875 180 " stroke="#000000" fill="none" stroke-width="2" stroke-linecap="round" stroke-linejoin="round" marker-start="url(#_FDFB2D6C-6BF8-4F13-9F7C-FD1BC653524Fstart)" marker-end="url(#_FDFB2D6C-6BF8-4F13-9F7C-FD1BC653524Fend)"/></g><text id="_FDFB2D6C-6BF8-4F13-9F7C-FD1BC653524Ftext_name" font-size="12" x="339.5703125" y="166" oryx:edgePosition="startTop" stroke-width="0pt" letter-spacing="-0.01px" fill="#000000" text-anchor="start" transform="rotate(360 325.5703125 180)" visibility="inherit" oryx:fontSize="12"/></g><g class="children" style="overflow:hidden"/><g class="edge"/></g><g class="controls"><g class="dockers"/><g class="magnets"/></g></g><g id="_4D2F5BC6-D3B3-4D4C-A1E1-2BE9E6554E6D" bpmn2nodeid="_671EAD33-5480-4536-96A6-A282D1272136"><g class="stencils"><g class="me"><g pointer-events="painted" bpmn2nodeid="_671EAD33-5480-4536-96A6-A282D1272136"><path id="_4D2F5BC6-D3B3-4D4C-A1E1-2BE9E6554E6D_1" d="M460.390625 180L504.375 180 " stroke="#000000" fill="none" stroke-width="2" stroke-linecap="round" stroke-linejoin="round" marker-start="url(#_4D2F5BC6-D3B3-4D4C-A1E1-2BE9E6554E6Dstart)" marker-end="url(#_4D2F5BC6-D3B3-4D4C-A1E1-2BE9E6554E6Dend)"/></g><text id="_4D2F5BC6-D3B3-4D4C-A1E1-2BE9E6554E6Dtext_name" font-size="12" x="474.390625" y="166" oryx:edgePosition="startTop" stroke-width="0pt" letter-spacing="-0.01px" fill="#000000" text-anchor="start" transform="rotate(360 460.390625 180)" visibility="inherit" oryx:fontSize="12"/></g><g class="children" style="overflow:hidden"/><g class="edge"/></g><g class="controls"><g class="dockers"/><g class="magnets"/></g></g></g><text id="_AB217E92-8ED0-48F4-A06A-DA9BD3E987EF" style="stroke-width:1;fill:rgb(177,194,214);font-family:arial;font-weight:bold" font-size="12" onclick="ORYX.Plugins.CanvasTitle.openTextualAnalysis()" onmouseover="ORYX.Plugins.CanvasTitle.addToolTip('_AB217E92-8ED0-48F4-A06A-DA9BD3E987EF')" transform="translate(10, 20)">process_01 v.1.0 (com.myspace.bpm_example_01.process_01)</text></g></g></svg>